<?xml version="1.0" encoding="utf-8"?>
<!-- Generator: Adobe Illustrator 26.3.1, SVG Export Plug-In . SVG Version: 6.00 Build 0)  -->
<svg version="1.1" id="Capa_1" xmlns="http://www.w3.org/2000/svg" xmlns:xlink="http://www.w3.org/1999/xlink" x="0px" y="0px"
	 viewBox="0 0 559 493" style="enable-background:new 0 0 559 493;" xml:space="preserve">
<g>
	<path d="M120.05,453.57V69.6c-21.94,19.36-70.34,43.88-95.51,49.69V88.96c27.75-9.68,69.05-34.85,101.32-63.24h27.75v427.85H120.05
		z"/>
	<path d="M255.55,453.57v-1.94c0-52.92,45.17-118.74,129.71-184.56c73.57-57.43,92.28-74.86,92.28-128.42
		c0-46.46-25.81-86.47-87.12-86.47c-58.08,0-88.41,27.75-99.38,89.7h-32.91C266.53,70.89,311.05,21.2,390.43,21.2
		c85.83,0,122.61,58.72,122.61,115.51c0,65.82-27.75,87.76-106.48,152.3c-62.6,50.98-100.67,91.64-113.58,132.94h237.48l-5.81,31.62
		H255.55z"/>
</g>
</svg>
