<?xml version="1.0" encoding="utf-8"?>
<!-- Generator: Adobe Illustrator 26.3.1, SVG Export Plug-In . SVG Version: 6.00 Build 0)  -->
<svg version="1.1" id="Capa_1" xmlns="http://www.w3.org/2000/svg" xmlns:xlink="http://www.w3.org/1999/xlink" x="0px" y="0px"
	 viewBox="0 0 559 493" style="enable-background:new 0 0 559 493;" xml:space="preserve">
<g>
	<path d="M120.05,453.57V69.6c-21.94,19.36-70.34,43.88-95.51,49.69V88.96c27.75-9.68,69.05-34.85,101.32-63.24h27.75v427.85H120.05
		z"/>
	<path d="M297.5,368.39c14.84,41.3,41.3,61.31,87.12,61.31c97.44,0,104.54-138.1,106.48-195.53
		c-21.3,43.24-60.66,60.66-110.35,60.66c-74.21,0-124.55-55.5-124.55-134.23c0-74.21,47.75-139.39,133.58-139.39
		c96.15,0,134.87,76.79,134.87,194.24c0,105.83-18.71,244.58-141.33,244.58c-76.15,0-109.06-43.24-121.32-91.64H297.5z
		 M291.05,159.95c0,61.95,34.85,103.25,92.28,103.25c70.99,0,100.67-37.43,100.67-100.67c0-24.52-8.39-110.35-96.8-110.35
		C319.44,52.18,291.05,99.93,291.05,159.95z"/>
</g>
</svg>
