<?xml version="1.0" encoding="utf-8"?>
<!-- Generator: Adobe Illustrator 26.3.1, SVG Export Plug-In . SVG Version: 6.00 Build 0)  -->
<svg version="1.1" id="Capa_1" xmlns="http://www.w3.org/2000/svg" xmlns:xlink="http://www.w3.org/1999/xlink" x="0px" y="0px"
	 viewBox="0 0 559 493" style="enable-background:new 0 0 559 493;" xml:space="preserve">
<g>
	<path d="M120.05,453.57V69.6c-21.94,19.36-70.34,43.88-95.51,49.69V88.96c27.75-9.68,69.05-34.85,101.32-63.24h27.75v427.85H120.05
		z"/>
	<path d="M536.27,238.03c0,97.44-25.17,223.28-138.75,223.28c-110.35,0-138.1-115.51-138.1-220.06
		c0-103.9,29.69-220.06,140.04-220.06C510.45,21.2,536.27,137.36,536.27,238.03z M295.56,241.9c0,82.6,17.42,188.44,101.96,188.44
		c86.47,0,103.25-101.32,103.25-192.31c0-81.31-16.78-185.85-100.67-185.85C312.34,52.18,295.56,147.69,295.56,241.9z"/>
</g>
</svg>
