<?xml version="1.0" encoding="utf-8"?>
<!-- Generator: Adobe Illustrator 26.3.1, SVG Export Plug-In . SVG Version: 6.00 Build 0)  -->
<svg version="1.1" id="Capa_1" xmlns="http://www.w3.org/2000/svg" xmlns:xlink="http://www.w3.org/1999/xlink" x="0px" y="0px"
	 viewBox="0 0 559 493" style="enable-background:new 0 0 559 493;" xml:space="preserve">
<g>
	<path d="M120.05,453.57V69.6c-21.94,19.36-70.34,43.88-95.51,49.69V88.96c27.75-9.68,69.05-34.85,101.32-63.24h27.75v427.85H120.05
		z"/>
	<path d="M510.46,60.57H327.83c-4.52,41.95-17.42,121.97-22.59,148.42c19.36-24.52,49.69-41.95,97.44-41.95
		c73.57,0,125.84,49.69,125.84,140.68c0,83.25-42.59,153.59-137.45,153.59c-70.34,0-120.68-41.3-132.94-111h34.2
		c10.97,45.17,43.88,80.02,100.67,80.02c67.11,0,100.67-47.11,100.67-120.68c0-61.95-27.1-111-92.93-111
		c-59.37,0-83.89,24.52-102.61,64.53l-32.27-9.03c13.55-56.79,28.39-174.88,34.2-225.22h214.89L510.46,60.57z"/>
</g>
</svg>
