<?xml version="1.0" encoding="utf-8"?>
<!-- Generator: Adobe Illustrator 26.3.1, SVG Export Plug-In . SVG Version: 6.00 Build 0)  -->
<svg version="1.1" id="Capa_1" xmlns="http://www.w3.org/2000/svg" xmlns:xlink="http://www.w3.org/1999/xlink" x="0px" y="0px"
	 viewBox="0 0 559 493" style="enable-background:new 0 0 559 493;" xml:space="preserve">
<g>
	<path d="M120.05,453.57V69.6c-21.94,19.36-70.34,43.88-95.51,49.69V88.96c27.75-9.68,69.05-34.85,101.32-63.24h27.75v427.85H120.05
		z"/>
	<path d="M254.27,334.83c0-63.89,41.95-99.38,81.96-113.58c-40.01-16.78-63.24-49.04-63.24-90.99c0-61.31,41.95-109.06,123.9-109.06
		c74.86,0,118.09,47.75,118.09,108.41c0,43.24-24.52,76.79-62.6,90.35c46.46,14.2,80.02,56.79,80.02,113.58
		c0,76.79-58.08,127.77-140.68,127.77C312.34,461.31,254.27,410.33,254.27,334.83z M497.55,333.54c0-61.95-38.07-96.15-103.9-96.15
		c-72.92,0-104.54,42.59-104.54,96.15c0,54.21,36.78,97.44,103.9,97.44C454.96,430.98,497.55,396.14,497.55,333.54z M307.83,128.33
		c0,40.66,24.52,78.08,88.41,78.08c59.37,0,83.89-30.98,83.89-75.5c0-40.66-25.17-79.38-85.18-79.38
		C331.06,51.53,307.83,85.09,307.83,128.33z"/>
</g>
</svg>
