<?xml version="1.0" encoding="utf-8"?>
<!-- Generator: Adobe Illustrator 26.3.1, SVG Export Plug-In . SVG Version: 6.00 Build 0)  -->
<svg version="1.1" id="Capa_1" xmlns="http://www.w3.org/2000/svg" xmlns:xlink="http://www.w3.org/1999/xlink" x="0px" y="0px"
	 viewBox="0 0 669 493" style="enable-background:new 0 0 669 493;" xml:space="preserve">
<g>
	<path d="M30.35,453.57v-1.94c0-52.92,45.17-118.74,129.71-184.56c73.57-57.43,92.28-74.86,92.28-128.42
		c0-46.46-25.81-86.47-87.12-86.47c-58.08,0-88.41,27.75-99.38,89.7H32.93C41.32,70.89,85.85,21.2,165.22,21.2
		c85.83,0,122.61,58.72,122.61,115.51c0,65.82-27.75,87.76-106.48,152.3c-62.6,50.98-100.67,91.64-113.58,132.94h237.48l-5.81,31.62
		H30.35z"/>
	<path d="M642.75,238.03c0,97.44-25.17,223.28-138.74,223.28c-110.35,0-138.1-115.51-138.1-220.06
		c0-103.9,29.68-220.06,140.04-220.06C616.94,21.2,642.75,137.36,642.75,238.03z M402.04,241.9c0,82.6,17.42,188.44,101.96,188.44
		c86.47,0,103.25-101.32,103.25-192.31c0-81.31-16.78-185.85-100.67-185.85C418.82,52.18,402.04,147.69,402.04,241.9z"/>
</g>
</svg>
