<?xml version="1.0" encoding="utf-8"?>
<!-- Generator: Adobe Illustrator 26.3.1, SVG Export Plug-In . SVG Version: 6.00 Build 0)  -->
<svg version="1.1" id="Capa_1" xmlns="http://www.w3.org/2000/svg" xmlns:xlink="http://www.w3.org/1999/xlink" x="0px" y="0px"
	 viewBox="0 0 345 493" style="enable-background:new 0 0 345 493;" xml:space="preserve">
<g>
	<path d="M50.35,124.45C57.45,72.18,94.88,21.2,174.9,21.2c81.31,0,118.74,52.27,118.74,106.48c0,52.27-31.62,80.02-59.37,89.06
		v1.29c45.17,13.55,78.73,48.4,78.73,110.35c0,71.63-45.17,132.94-139.39,132.94c-86.47,0-129.71-56.14-137.45-112.93h33.56
		c10.33,43.24,44.53,81.96,106.48,81.96c72.92,0,101.32-49.04,101.32-100.67c0-67.76-44.53-94.86-107.12-94.86h-25.17v-29.69h20
		c64.53,0,93.57-27.1,93.57-77.44c0-44.53-30.98-75.5-85.18-75.5c-56.14,0-80.67,29.69-90.99,72.28H50.35z"/>
</g>
</svg>
