<?xml version="1.0" encoding="utf-8"?>
<!-- Generator: Adobe Illustrator 26.3.1, SVG Export Plug-In . SVG Version: 6.00 Build 0)  -->
<svg version="1.1" id="Capa_1" xmlns="http://www.w3.org/2000/svg" xmlns:xlink="http://www.w3.org/1999/xlink" x="0px" y="0px"
	 viewBox="0 0 345 493" style="enable-background:new 0 0 345 493;" xml:space="preserve">
<g>
	<path d="M263.31,114.13c-10.33-37.43-35.49-62.6-83.25-62.6c-81.31,0-110.35,76.15-112.29,187.79
		c16.78-35.49,49.69-72.28,115.51-72.28c85.18,0,128.42,61.31,128.42,141.97c0,78.73-43.24,152.3-134.87,152.3
		c-112.93,0-142.62-94.86-142.62-214.25c0-121.32,37.43-225.86,147.13-225.86c82.6,0,109.71,55.5,116.16,92.93H263.31z
		 M276.22,310.95c0-52.27-20.65-112.93-95.51-112.93c-60.02,0-105.83,40.01-105.83,114.22c0,35.49,18.71,118.74,102.61,118.74
		C249.76,430.98,276.22,370.97,276.22,310.95z"/>
</g>
</svg>
